<svg width="1221" height="383" viewBox="0 0 1221 383" fill="none" xmlns="http://www.w3.org/2000/svg">
<path d="M1220.05 0.436523H0.222656V191.718V383H1220.05V0.436523Z" fill="white"/>
<g clip-path="url(#clip0)">
<path opacity="0.18" d="M856.59 137.47C860.168 147.134 860.602 157.216 857.86 167.006C855.119 176.797 849.27 186.06 840.722 194.145C827.96 205.992 809.767 214.851 798.437 227.328C773.948 254.263 787.093 291.043 764.632 318.791C745.857 342.002 706.961 353.405 670.844 363.193C642.484 370.872 613.84 378.599 583.778 381.694C553.716 384.789 521.385 382.826 495.336 372.158C473.853 363.386 458.071 349.478 443.493 335.59C407.66 301.421 375.273 264.215 364.269 222.879C353.265 181.543 366.991 135.178 412.113 106.579C434.078 92.6524 462.849 83.0487 478.348 65.5336C494.613 47.1578 494.84 21.5187 520.123 8.71371C529.454 3.98436 541.053 1.78894 552.567 0.744418C580.288 -1.68923 608.423 2.00213 632.841 11.2767C657.614 20.745 677.948 35.7938 704.933 41.8482C739.859 49.6917 784.682 43.6664 807.895 66.878C826.542 85.5439 848.309 115.729 856.59 137.47Z" fill="#04A9F4"/>
<path d="M707.979 124.259C707.574 124.843 707.022 125.373 706.348 125.826C700.944 129.72 693.948 132.415 686.269 133.563C683.558 133.989 680.784 134.203 678.002 134.201C676.371 127.025 674.712 119.839 673.436 112.634C672.429 107.005 671.678 101.386 671.323 95.738C671.082 92.1982 659.837 79.8574 662.134 76.5498C664.673 72.9133 682.951 85.3605 685.007 87.73C696.422 100.787 700.52 110.884 708.347 122.112C708.644 122.833 708.511 123.605 707.979 124.259V124.259Z" fill="#04A9F4"/>
<path d="M688.112 132.248C687.565 132.733 686.947 133.181 686.269 133.582C683.557 134.008 680.784 134.222 678.002 134.221C676.371 127.044 674.712 119.858 673.436 112.653C673.918 106.992 674.792 101.354 676.059 95.7378C675.52 98.088 679.76 103.214 680.908 105.516L685.886 115.545C688.481 120.777 694.025 127.141 688.112 132.248Z" fill="url(#paint0_linear)"/>
<path d="M682.001 144.521C683.135 149.24 684.582 154.018 687.999 158.196C689.758 160.343 692.381 162.452 695.94 162.829C697.92 162.956 699.915 162.754 701.754 162.239C705.566 161.345 709.16 160.067 712.417 158.448C715.53 156.82 718.464 155.039 721.195 153.119C725.258 150.503 729.017 147.677 732.44 144.666C734.014 143.215 735.446 141.687 737.162 140.304C744.252 134.549 755.596 131.967 763.636 126.832C765.806 125.458 770.202 119.172 769.875 117.16C766.926 116 760.871 120.671 757.61 121.348C754.348 122.025 751.299 123.127 748.024 123.756C744.102 124.502 739.962 124.539 736.013 123.862C734.68 123.63 733.092 109.288 731.759 109.616C731.088 109.808 730.488 110.099 730.001 110.467C727.25 112.402 725.747 128.911 723.464 131.058C720.33 133.959 715.991 136.165 711.694 138.273C711.311 138.457 710.829 138.65 710.404 138.505C710.264 138.434 710.146 138.344 710.058 138.241C709.971 138.138 709.915 138.024 709.893 137.905C708.773 135.072 707.511 132.257 706.136 129.482C705.171 127.547 703.81 125.42 700.96 124.839C698.422 124.327 695.784 125.304 693.515 126.242C690.594 127.46 687.645 128.66 684.738 129.888C683.121 130.565 681.164 131.222 680.399 132.47C679.463 133.969 680.257 136.039 680.526 137.577C680.952 139.907 681.448 142.219 682.001 144.521Z" fill="#F5BCBA"/>
<path d="M707.88 276.062C707.88 279.022 707.667 281.933 707.284 284.825C703.976 309.572 686.857 332.507 659.464 348.891C632.071 365.276 596.498 373.858 560.092 372.865C523.687 371.872 489.232 361.379 463.846 343.555C438.459 325.73 424.081 301.936 423.681 277.088C423.681 276.759 423.681 276.44 423.681 276.121C423.493 263.311 427.03 250.603 434.088 238.732C441.145 226.86 451.583 216.061 464.797 206.957C478.012 197.854 493.741 190.628 511.075 185.696C528.41 180.764 547.005 178.225 565.787 178.225C584.57 178.225 603.165 180.764 620.5 185.696C637.834 190.628 653.563 197.854 666.778 206.957C679.992 216.061 690.43 226.86 697.487 238.732C704.545 250.603 708.082 263.311 707.894 276.121L707.88 276.062Z" fill="#04A9F4"/>
<path d="M707.88 276.063C707.88 279.022 707.667 281.933 707.284 284.825C674.585 299.999 626.457 309.574 572.785 309.574C510.393 309.574 455.572 296.643 423.681 277.039C423.681 276.711 423.681 276.391 423.681 276.072C423.493 263.263 427.03 250.555 434.088 238.683C441.145 226.812 451.583 216.012 464.797 206.909C478.012 197.806 493.741 190.579 511.075 185.648C528.41 180.716 547.005 178.177 565.787 178.177C584.57 178.177 603.165 180.716 620.5 185.648C637.834 190.579 653.563 197.806 666.778 206.909C679.992 216.012 690.43 226.812 697.487 238.683C704.545 250.555 708.082 263.263 707.894 276.072L707.88 276.063Z" fill="url(#paint1_linear)"/>
<path d="M630.938 238.17C636.61 239.562 642.778 240.559 647.43 243.199C651.556 245.53 654.066 248.905 656.094 252.28C662.855 263.608 665.294 275.92 663.184 288.065C662.616 291.295 661.766 294.622 662.999 297.736C664.233 300.85 668.445 303.771 673.181 303.384C679.746 294.487 679.888 284.1 679.902 274.138C679.902 266.865 679.902 259.437 676.329 252.58C673.408 246.932 668.246 241.942 662.914 237.193C643.473 219.784 619.948 203.546 590 195.722C588.758 195.288 587.332 195.168 585.973 195.383C579.804 196.921 580.811 204.407 583.208 207.414C586.611 211.57 590.4 215.572 594.552 219.397C603.66 227.992 616.333 234.531 630.938 238.17V238.17Z" fill="url(#paint2_linear)"/>
<path d="M574.855 216.312C574.939 215.011 575.186 213.716 575.593 212.444C575.811 211.812 576.279 211.233 576.947 210.771C577.615 210.309 578.456 209.981 579.379 209.823C580.158 209.808 580.934 209.76 581.704 209.677C583.278 209.349 583.945 208.101 584.398 207.027L589.432 195.035C590.397 192.714 591.375 190.276 590.638 187.926C589.475 184.251 584.526 181.766 579.705 179.967C576.202 178.651 572.26 177.481 568.361 177.974C562.32 178.738 558.817 182.994 556.563 186.891C553.939 191.068 552.325 195.506 551.784 200.035C551.387 205.267 550.735 218.082 555.485 222.657C562.065 229.078 573.806 222.115 574.855 216.312Z" fill="url(#paint3_linear)"/>
<path d="M651.343 201.176C664.204 204.146 677.917 205.393 690.31 209.175C690.709 209.257 691.079 209.395 691.397 209.58C691.714 209.765 691.972 209.992 692.154 210.248C692.262 210.667 692.183 211.098 691.927 211.486C681.46 232.716 675.557 254.868 674.4 277.252C681.815 278.162 689.394 278.277 696.861 277.591C697.7 277.555 698.514 277.379 699.229 277.078C699.918 276.667 700.436 276.14 700.732 275.55C712.729 257.181 723.496 238.466 733.035 219.407C734.722 216.032 736.396 212.502 735.715 208.962C734.737 203.807 729.05 199.745 723.648 196.08L681.547 167.433C680.476 166.609 679.161 165.95 677.69 165.498C675.996 165.155 674.206 165.095 672.471 165.324C655.866 166.727 633.192 167.162 602.677 166.291C598.72 166.175 618.275 181.543 619.906 184.493C621.21 186.834 625.337 189.851 627.861 191.669C634.185 196.196 642.721 199.184 651.343 201.176Z" fill="#525263"/>
<path d="M651.343 201.176C664.204 204.146 677.917 205.393 690.31 209.175C690.709 209.257 691.079 209.395 691.397 209.58C691.714 209.765 691.972 209.992 692.154 210.248C692.262 210.667 692.183 211.098 691.927 211.486C681.46 232.716 675.557 254.868 674.4 277.252C681.815 278.162 689.394 278.277 696.861 277.591C697.7 277.555 698.514 277.379 699.229 277.078C699.918 276.667 700.436 276.14 700.732 275.55C712.729 257.181 723.496 238.466 733.035 219.407C734.722 216.032 736.396 212.502 735.715 208.962C734.737 203.807 729.05 199.745 723.648 196.08L681.547 167.433C680.476 166.609 679.161 165.95 677.69 165.498C675.996 165.155 674.206 165.095 672.471 165.324C655.866 166.727 633.192 167.162 602.677 166.291C598.72 166.175 618.275 181.543 619.906 184.493C621.21 186.834 625.337 189.851 627.861 191.669C634.185 196.196 642.721 199.184 651.343 201.176Z" fill="url(#paint4_linear)"/>
<path d="M672.245 289.951C671.212 291.047 670.513 292.274 670.189 293.558C669.433 295.806 668.874 298.083 668.516 300.377C668.232 302.156 668.133 304.091 669.622 305.551C671.111 307.011 673.564 307.543 675.861 308.153C681.644 309.776 687.262 311.659 692.679 313.791C696.337 315.164 700.152 316.586 704.321 316.692C708.49 316.799 713.098 315.242 714.048 312.476C714.377 311.144 714.212 309.777 713.566 308.501C711.29 302.951 706.827 297.934 700.662 293.994C699.582 293.274 698.377 292.648 697.075 292.127C695.825 291.687 694.52 291.324 693.175 291.044C689.388 290.099 685.507 289.339 681.562 288.771C678.116 288.394 674.628 287.697 672.245 289.951Z" fill="#2E2E3F"/>
<path d="M672.245 289.951C671.212 291.047 670.513 292.274 670.189 293.558C669.433 295.806 668.874 298.083 668.516 300.377C668.232 302.156 668.133 304.091 669.622 305.551C671.111 307.011 673.564 307.543 675.861 308.153C681.644 309.776 687.262 311.659 692.679 313.791C696.337 315.164 700.152 316.586 704.321 316.692C708.49 316.799 713.098 315.242 714.048 312.476C714.377 311.144 714.212 309.777 713.566 308.501C711.29 302.951 706.827 297.934 700.662 293.994C699.582 293.274 698.377 292.648 697.075 292.127C695.825 291.687 694.52 291.324 693.175 291.044C689.388 290.099 685.507 289.339 681.562 288.771C678.116 288.394 674.628 287.697 672.245 289.951Z" fill="url(#paint5_linear)"/>
<path d="M676.455 277.977C675.381 281.803 674.82 285.688 674.782 289.583C674.782 291.295 674.952 293.191 676.753 294.419C678.458 295.343 680.631 295.767 682.794 295.599C685.402 295.533 687.976 295.17 690.409 294.525C690.948 294.411 691.436 294.204 691.827 293.926C692.114 293.651 692.313 293.338 692.408 293.007C694.572 287.471 695.72 281.772 695.826 276.043C695.964 275.145 695.691 274.24 695.046 273.451C693.699 272.165 690.905 272.223 688.636 272.532C685.732 272.957 682.885 273.549 680.128 274.302C677.519 274.921 676.98 276.14 676.455 277.977Z" fill="#F5BCBA"/>
<path d="M704.419 296.16C705.445 297.878 706.279 299.647 706.915 301.45C707.355 302.853 707.61 304.352 708.929 305.474C710.602 306.876 713.509 307.234 716.161 307.263C718.346 307.347 720.532 307.096 722.556 306.528C723.609 306.246 724.49 305.727 725.052 305.058C725.446 304.396 725.583 303.677 725.449 302.969C725.241 298.055 723.445 293.233 720.188 288.848C718.32 286.582 716.216 284.41 713.892 282.349C713.158 281.422 711.921 280.728 710.446 280.415C709.688 280.396 708.932 280.482 708.223 280.666C707.515 280.851 706.867 281.13 706.32 281.488C703.98 282.688 698.832 284.69 699.371 286.962C700.052 289.99 702.831 293.288 704.419 296.16Z" fill="#F5BCBA"/>
<path d="M721.606 299.728C720.001 300.341 718.444 301.009 716.941 301.73C714.601 302.611 711.85 302.785 709.283 303.288C708.606 303.376 707.983 303.602 707.497 303.936C707.143 304.261 706.923 304.645 706.858 305.048C706.377 307.688 706.535 310.364 707.326 312.969C708.631 318.604 710.153 324.217 711.892 329.807C712.616 332.109 713.481 334.536 715.934 336.19C718.387 337.844 722.116 338.414 725.605 338.482C728.868 338.61 732.129 338.195 735.105 337.273C737.473 336.409 739.524 335.191 741.105 333.711C742.686 332.23 743.757 330.526 744.237 328.724C745.161 325.1 744.51 321.372 742.366 317.998C740.909 315.691 739.213 313.457 737.289 311.315C734.737 308.323 732.194 305.331 729.66 302.34C727.732 300.057 725.973 298.462 721.606 299.728Z" fill="#2E2E3F"/>
<path d="M721.606 299.728C720.001 300.341 718.444 301.009 716.941 301.73C714.601 302.611 711.85 302.785 709.283 303.288C708.606 303.376 707.983 303.602 707.497 303.936C707.143 304.261 706.923 304.645 706.858 305.048C706.377 307.688 706.535 310.364 707.326 312.969C708.631 318.604 710.153 324.217 711.892 329.807C712.616 332.109 713.481 334.536 715.934 336.19C718.387 337.844 722.116 338.414 725.605 338.482C728.868 338.61 732.129 338.195 735.105 337.273C737.473 336.409 739.524 335.191 741.105 333.711C742.686 332.23 743.757 330.526 744.237 328.724C745.161 325.1 744.51 321.372 742.366 317.998C740.909 315.691 739.213 313.457 737.289 311.315C734.737 308.323 732.194 305.331 729.66 302.34C727.732 300.057 725.973 298.462 721.606 299.728Z" fill="url(#paint6_linear)"/>
<path d="M549.798 122.702C548.558 124.831 547.728 127.061 547.331 129.337C545.982 135.227 545.121 141.165 544.75 147.122C544.041 158.496 545.119 169.889 544.651 181.263C544.169 193.091 542.127 205.354 548.366 216.39C549.338 218.392 550.979 220.213 553.159 221.709C554.263 222.445 555.623 222.977 557.112 223.254C558.6 223.532 560.168 223.546 561.667 223.295C563.024 222.939 564.241 222.374 565.225 221.644C566.209 220.914 566.932 220.04 567.339 219.088C568.121 217.182 568.465 215.205 568.36 213.227L568.587 202.414C568.587 202.192 568.587 201.931 568.913 201.834C569.05 201.802 569.196 201.795 569.338 201.813C569.48 201.832 569.612 201.876 569.722 201.94C570.942 202.659 572.102 203.425 573.196 204.232C574.458 204.929 576.471 205.267 577.592 204.465C577.902 204.183 578.121 203.86 578.236 203.517C578.351 203.174 578.358 202.818 578.258 202.472C577.577 197.791 571.593 194.416 568.034 190.383C562.901 184.58 562.901 177.268 564.191 170.518C565.794 162.065 569.14 153.815 572.473 145.594L575.309 138.641C577.45 133.36 579.563 127.596 576.443 122.538C575.19 120.595 573.283 118.881 570.875 117.537C568.468 116.192 565.628 115.255 562.589 114.8C556.662 114.056 551.94 119.414 549.798 122.702Z" fill="#F5BCBA"/>
<path d="M681.448 166.678C679.619 170.034 669.296 166.117 663.397 168.129C652.138 171.997 639.291 168.022 626.741 168.129C613.384 168.293 604.167 177.268 590.908 178.41C589.945 178.545 588.951 178.545 587.987 178.41C586.158 178.042 585.08 176.794 584.3 175.624C583.156 173.819 582.337 171.926 581.861 169.986C580.216 163.564 581.861 156.678 583.619 150.149C585.094 144.617 586.564 139.082 588.03 133.544C589.731 127.096 591.447 120.61 593.177 114.085C594.186 109.78 595.607 105.525 597.431 101.347C597.771 100.622 598.126 99.9159 598.509 99.2195C601.807 93.5476 605.786 88.0711 610.406 82.8457C613.242 79.4897 616.078 76.0757 620.46 73.5321C625.352 70.7177 631.662 69.3153 638 68.6383C643.701 67.9055 649.578 68.138 655.116 69.3153C658.278 70.0697 659.469 72.3522 661.979 73.7545C665.161 75.3623 668 77.2631 670.416 79.4027C672.87 81.9859 674.624 84.8491 675.592 87.8556C684.483 111.435 671.622 136.871 680.073 160.517C681.037 163.293 682.909 164.028 681.448 166.678Z" fill="#04A9F4"/>
<path d="M669.366 83.8518L670.472 88.7939L666.218 87.1788V100.274L661.368 85.728L666.062 81.0664L669.366 83.8518Z" fill="url(#paint7_linear)"/>
<path d="M633.349 83.5326L636.029 84.4997L640.283 87.024L628.938 107.779C628.938 107.779 645.416 90.4864 645.955 81.666C646.288 76.2404 645.296 70.8148 643.019 65.6113L633.349 83.5326Z" fill="url(#paint8_linear)"/>
<path d="M597.019 143.022C596.118 147.773 596.118 152.584 597.019 157.335C597.6 160.324 598.536 163.303 598.238 166.301C598.252 166.887 597.977 167.459 597.458 167.926C596.792 168.295 595.975 168.515 595.119 168.554C590.685 169.031 586.247 169.518 581.804 170.015C580.159 163.593 581.804 156.707 583.562 150.178C585.037 144.646 586.507 139.111 587.972 133.573C589.673 127.125 591.389 120.639 593.119 114.114C594.128 109.809 595.549 105.554 597.373 101.376C597.714 100.651 598.068 99.9448 598.451 99.2485C602.847 97.585 608.959 96.347 611.681 99.0357C614.517 101.937 610.788 108.707 609.682 111.609C605.655 122.122 599.047 132.17 597.019 143.022Z" fill="url(#paint9_linear)"/>
<path d="M699.017 59.1701C699.165 60.3727 699.112 61.5829 698.861 62.7775C698.718 63.3731 698.282 63.9178 697.625 64.322C696.968 64.7263 696.129 64.9661 695.246 65.002C690.821 64.7795 687.631 67.6713 684.114 69.5282C681.355 70.9383 678.08 71.8026 674.648 72.0261C671.215 72.2496 667.759 71.8237 664.659 70.7952C664.043 70.6441 663.365 70.6602 662.766 70.8402C662.167 71.0202 661.692 71.3503 661.44 71.7623C660.998 72.6155 660.9 73.5341 661.156 74.422L662.787 85.0026C663.099 87.0433 663.127 89.5385 660.589 90.6411C658.051 91.7436 655.045 90.7861 652.946 89.5385C649.647 87.3746 647.262 84.6454 646.04 81.6369C643.267 75.5415 642.87 69.0586 644.886 62.8264C646.903 56.5942 651.264 50.8276 657.54 46.0943C659.897 44.2978 662.659 42.7698 665.722 41.568C668.929 40.4328 672.373 39.6402 675.932 39.2178C679.118 38.705 682.411 38.5806 685.66 38.8503C690.023 39.3914 693.99 40.9215 696.919 43.1928C699.074 44.7983 701.173 49.5857 703.442 50.369C701.754 53.2898 699.088 55.8721 699.017 59.1701Z" fill="#F5BCBA"/>
<path d="M665.268 17.6408C663.188 17.3091 661.019 17.3524 658.972 17.7665C654.973 18.7337 652.732 21.5868 651.286 24.3044C649.84 27.0221 648.648 29.9913 645.5 31.9159C642.792 33.5794 638.949 34.2467 636.51 36.0843C633.674 38.2217 633.405 41.3843 633.674 44.2567C633.674 46.4118 634.564 48.5233 636.241 50.3497C637.744 51.7424 640.055 52.7096 641.232 54.2183C642.565 55.9495 643.019 58.6285 645.883 58.7446C647.078 58.7034 648.206 58.3583 649.045 57.7774C651.941 56.0705 654.123 53.8717 655.37 51.4039C656.065 50.0306 656.518 48.5025 658.05 47.5353C659.581 46.5682 662.701 46.5101 663.396 47.8835C663.591 48.7573 663.393 49.6509 662.829 50.4464C662.46 51.2975 662.616 52.4484 663.835 52.7386C666.133 50.3207 667.423 47.4773 670.146 45.2819C671.69 44.0472 673.629 43.0699 675.813 42.425C677.997 41.7801 680.369 41.4846 682.746 41.5612C685.123 41.6377 687.443 42.0842 689.529 42.8666C691.614 43.649 693.409 44.7464 694.776 46.0749C696.194 47.458 697.159 49.1021 699.144 50.0886C701.014 50.8657 703.151 51.2928 705.341 51.3265C710.219 51.6554 715.38 51.7811 719.776 50.3014C724.172 48.8216 727.419 45.2335 725.732 42.0903C724.399 39.6241 720.599 38.2217 716.912 37.4286C713.225 36.6356 709.283 36.239 706.035 34.827C701.625 32.8927 699.272 29.4497 696.705 26.3258C694.138 23.2019 690.664 19.991 685.531 19.2559C683.435 19.0335 681.302 19.0335 679.207 19.2559C677.162 19.5518 675.069 19.6624 672.982 19.5848C670.429 19.2269 667.962 18.047 665.268 17.6408Z" fill="#2E2E3F"/>
<path d="M665.268 97.1113C668.507 108.3 669.461 119.74 668.104 131.107C666.984 140.565 664.318 149.956 664.417 159.444C664.626 162.112 664.507 164.788 664.063 167.442C663.439 170.073 637.574 169.067 633.802 169.038C627.45 168.98 635.504 174.841 630.725 172.017C623.224 167.558 619.877 160.605 618.956 153.854C617.637 144.231 620.53 134.598 623.678 125.168C625.862 118.64 628.187 112.092 632.101 105.951C636.95 98.3589 644.622 88.6971 647.089 80.5827C647.444 79.3931 641.417 75.07 644.012 75.128C645.7 75.128 644.905 76.9172 645.203 77.807C645.735 79.1619 646.754 80.4051 648.167 81.4242C650.145 82.9993 652.824 84.0897 655.796 84.5287C657.71 84.7705 659.894 84.7125 661.284 85.6409C662.971 86.7628 662.702 88.9486 663.184 90.4767C663.879 92.6624 664.616 94.8772 665.268 97.1113Z" fill="#F2F2F2"/>
<path d="M607.851 68.3387C600.988 70.4858 595.089 73.8128 589.517 77.2945C584.904 80.1295 580.547 83.1525 576.471 86.347C572.869 89.2485 569.579 92.2563 565.779 94.9933C560.532 98.7555 553.981 102.392 552.946 107.566C552.629 110.264 553.322 112.973 554.959 115.439C556.309 117.956 558.301 120.291 560.844 122.335C564.071 124.769 568.328 126.459 573.025 127.17C574.497 127.432 576.034 127.478 577.534 127.306C579.647 126.896 581.59 126.154 583.206 125.139C586.903 123.231 590.404 121.154 593.685 118.921C597.032 116.551 599.868 113.853 603.129 111.425C605.966 109.336 608.986 107.45 611.822 105.4C615.211 102.943 618.231 100.264 621.252 97.5853C625.525 93.9515 629.443 90.1295 632.979 86.1439C635.932 82.6266 638.278 78.8879 639.97 75.0024C641.061 72.4685 642.806 69.2575 639.034 67.4296C631.022 63.5804 615.835 65.7951 607.851 68.3387Z" fill="#04A9F4"/>
<path d="M607.851 68.3387C600.988 70.4858 595.089 73.8128 589.517 77.2945C584.904 80.1295 580.547 83.1525 576.471 86.347C572.869 89.2485 569.579 92.2563 565.779 94.9933C560.532 98.7555 553.981 102.392 552.946 107.566C552.629 110.264 553.322 112.973 554.959 115.439C556.309 117.956 558.301 120.291 560.844 122.335C564.071 124.769 568.328 126.459 573.025 127.17C574.497 127.432 576.034 127.478 577.534 127.306C579.647 126.896 581.59 126.154 583.206 125.139C586.903 123.231 590.404 121.154 593.685 118.921C597.032 116.551 599.868 113.853 603.129 111.425C605.966 109.336 608.986 107.45 611.822 105.4C615.211 102.943 618.231 100.264 621.252 97.5853C625.525 93.9515 629.443 90.1295 632.979 86.1439C635.932 82.6266 638.278 78.8879 639.97 75.0024C641.061 72.4685 642.806 69.2575 639.034 67.4296C631.022 63.5804 615.835 65.7951 607.851 68.3387Z" fill="#04A9F4"/>
<path d="M726.726 112.498C725.192 113.159 724.096 114.201 723.67 115.403C723.244 116.606 723.521 117.874 724.443 118.94C726.823 121.764 730.016 124.231 733.83 126.193C736.099 127.857 741.204 128.128 745.741 126.309C750.279 124.491 771.932 116.454 782.751 111.202C783.545 110.83 784.219 110.352 784.733 109.796C785.247 109.24 785.589 108.619 785.739 107.97C785.889 107.321 785.843 106.658 785.605 106.022C785.367 105.385 784.941 104.789 784.354 104.268L775.293 96.5309C774.219 95.6152 772.687 95.0022 770.991 94.8094C769.296 94.6166 767.555 94.8577 766.104 95.4863L726.726 112.498Z" fill="#3D3D54"/>
<path d="M582.811 195.857C584.411 199.863 587.249 203.589 591.135 206.786C595.389 210.171 601.174 212.589 606.733 214.89L630.144 224.61C633.578 225.957 636.862 227.473 639.971 229.146C647.643 233.46 652.733 239.475 657.682 245.355L691.828 285.947C693.558 288.026 695.983 290.376 699.485 290.299C701.371 290.132 703.145 289.594 704.59 288.751C708.972 286.653 713.68 284.264 714.984 280.714C715.892 278.238 714.984 275.637 713.892 273.18C708.646 261.081 700.421 249.688 692.168 238.363C679.056 220.439 665.751 202.55 652.251 184.696C648.664 179.957 644.31 172.578 638.383 169.096C638.383 169.096 583.307 166.813 581.918 170.537C578.822 178.874 579.131 187.631 582.811 195.857V195.857Z" fill="#525263"/>
<path d="M582.811 195.857C584.411 199.863 587.249 203.589 591.135 206.786C595.389 210.171 601.174 212.589 606.733 214.89L630.144 224.61C633.578 225.957 636.862 227.473 639.971 229.146C647.643 233.46 652.733 239.475 657.682 245.355L691.828 285.947C693.558 288.026 695.983 290.376 699.485 290.299C701.371 290.132 703.145 289.594 704.59 288.751C708.972 286.653 713.68 284.264 714.984 280.714C715.892 278.238 714.984 275.637 713.892 273.18C708.646 261.081 700.421 249.688 692.168 238.363C679.056 220.439 665.751 202.55 652.251 184.696C648.664 179.957 644.31 172.578 638.383 169.096C638.383 169.096 583.307 166.813 581.918 170.537C578.822 178.874 579.131 187.631 582.811 195.857V195.857Z" fill="url(#paint10_linear)"/>
<path d="M644.749 63.0386L636.964 65.1373L632.242 83.1553L647.94 82.6717L644.749 63.0386Z" fill="#04A9F4"/>
<path d="M661.227 82.2365C661.227 83.0489 661.227 83.8613 661.227 84.6738C661.227 85.026 661.255 85.3779 661.312 85.7279C661.397 86.0834 661.51 86.4353 661.652 86.7821L663.609 92.0434L664.417 83.4938C666.729 84.2579 669.097 84.9542 671.507 85.5635C671.326 84.2822 670.847 83.0287 670.089 81.8497C668.671 79.3738 667.367 76.8882 665.835 74.4607C665.477 73.8123 664.96 73.2104 664.304 72.6811C663.973 72.4187 663.558 72.2122 663.09 72.0779C662.623 71.9436 662.116 71.8853 661.61 71.9074C660.192 72.3136 661.085 75.9404 661.099 76.7431L661.227 82.2365Z" fill="#04A9F4"/>
<path d="M775.945 108.262L747.13 120.69C746.625 120.876 746.043 120.939 745.478 120.869C744.914 120.798 744.401 120.599 744.025 120.303L734.865 113.263C734.676 113.143 734.53 112.995 734.438 112.831C734.345 112.667 734.309 112.491 734.33 112.316C734.352 112.141 734.432 111.971 734.564 111.82C734.696 111.669 734.876 111.541 735.091 111.444L763.962 99.0262C764.467 98.8403 765.05 98.7773 765.615 98.8476C766.179 98.9179 766.692 99.1174 767.068 99.413L776.228 106.444C776.414 106.567 776.556 106.717 776.644 106.882C776.732 107.048 776.763 107.225 776.736 107.4C776.709 107.576 776.623 107.744 776.486 107.894C776.349 108.043 776.164 108.169 775.945 108.262Z" fill="#04A9F4"/>
</g>
<defs>
<linearGradient id="paint0_linear" x1="647.741" y1="115.284" x2="705.921" y2="113.974" gradientUnits="userSpaceOnUse">
<stop offset="0.01"/>
<stop offset="0.13" stop-opacity="0.69"/>
<stop offset="1" stop-opacity="0"/>
</linearGradient>
<linearGradient id="paint1_linear" x1="109379" y1="11297" x2="78981.2" y2="79978.6" gradientUnits="userSpaceOnUse">
<stop offset="0.01"/>
<stop offset="0.13" stop-opacity="0.69"/>
<stop offset="1" stop-opacity="0"/>
</linearGradient>
<linearGradient id="paint2_linear" x1="30137" y1="22555.4" x2="20446.9" y2="31781.1" gradientUnits="userSpaceOnUse">
<stop offset="0.01"/>
<stop offset="0.13" stop-opacity="0.69"/>
<stop offset="1" stop-opacity="0"/>
</linearGradient>
<linearGradient id="paint3_linear" x1="7217.66" y1="9322.76" x2="12442.7" y2="12044.3" gradientUnits="userSpaceOnUse">
<stop offset="0.01"/>
<stop offset="0.13" stop-opacity="0.69"/>
<stop offset="1" stop-opacity="0"/>
</linearGradient>
<linearGradient id="paint4_linear" x1="30924.8" y1="26620.4" x2="43534.7" y2="26620.4" gradientUnits="userSpaceOnUse">
<stop offset="0.01"/>
<stop offset="0.13" stop-opacity="0.69"/>
<stop offset="1" stop-opacity="0"/>
</linearGradient>
<linearGradient id="paint5_linear" x1="14961.1" y1="9462.8" x2="13879.2" y2="9013.28" gradientUnits="userSpaceOnUse">
<stop offset="0.01"/>
<stop offset="0.13" stop-opacity="0.69"/>
<stop offset="1" stop-opacity="0"/>
</linearGradient>
<linearGradient id="paint6_linear" x1="12139.7" y1="13441.7" x2="13163.5" y2="13441.7" gradientUnits="userSpaceOnUse">
<stop offset="0.01"/>
<stop offset="0.13" stop-opacity="0.69"/>
<stop offset="1" stop-opacity="0"/>
</linearGradient>
<linearGradient id="paint7_linear" x1="2483.83" y1="1637.83" x2="2853.52" y2="1783.61" gradientUnits="userSpaceOnUse">
<stop offset="0.01"/>
<stop offset="0.13" stop-opacity="0.69"/>
<stop offset="1" stop-opacity="0"/>
</linearGradient>
<linearGradient id="paint8_linear" x1="5323.86" y1="3665.88" x2="4336.63" y2="3824.27" gradientUnits="userSpaceOnUse">
<stop offset="0.01"/>
<stop offset="0.13" stop-opacity="0.69"/>
<stop offset="1" stop-opacity="0"/>
</linearGradient>
<linearGradient id="paint9_linear" x1="6535.56" y1="10599.5" x2="8544.02" y2="10569.2" gradientUnits="userSpaceOnUse">
<stop offset="0.01"/>
<stop offset="0.13" stop-opacity="0.69"/>
<stop offset="1" stop-opacity="0"/>
</linearGradient>
<linearGradient id="paint10_linear" x1="33315.6" y1="30490.3" x2="42638.2" y2="26130.7" gradientUnits="userSpaceOnUse">
<stop offset="0.01"/>
<stop offset="0.13" stop-opacity="0.69"/>
<stop offset="1" stop-opacity="0"/>
</linearGradient>
<clipPath id="clip0">
<rect width="499" height="383" fill="white" transform="translate(360.636)"/>
</clipPath>
</defs>
</svg>
