<svg width="1221" height="552" viewBox="0 0 1221 552" fill="none" xmlns="http://www.w3.org/2000/svg">
<path d="M1220.41 0.691162H0.586914V276.346V552H1220.41V0.691162Z" fill="white"/>
<g clip-path="url(#clip0)">
<path opacity="0.18" d="M899.692 489.786C873.345 520.282 828.038 535.302 783.868 537.626C739.697 539.951 695.887 531.124 652.91 522.07C614.478 513.942 572.448 502.921 532.426 504.627C503.427 505.847 475.736 514.787 446.15 514.69C396.695 514.543 356.805 495.947 330.837 463.127C325.174 455.937 320.286 448.32 316.234 440.369C316.197 440.223 316.126 440.085 316.025 439.963C284.053 377.525 287.917 300.782 331.898 243.27C346.52 224.137 364.836 207.199 378.625 187.627C391.013 170.038 399.46 150.645 410.825 132.585C450.468 69.8224 527.975 27.2814 610.046 17.9507C638.944 14.5644 668.311 15.5825 696.796 20.958C772.333 35.4905 840.179 81.8678 867.265 144.127C884.918 184.766 885.069 229.306 894.35 271.977C902.381 308.91 917.345 344.623 923.463 381.816C929.581 419.009 925.773 459.599 899.692 489.786Z" fill="#04A9F4"/>
<path opacity="0.18" d="M478.178 451.651C431.791 467.386 381.03 467.045 330.836 463.127C325.172 455.938 320.284 448.32 316.232 440.369C357.457 434.562 399.114 431.302 440.883 430.616C450.638 430.453 480.943 425.918 489.751 431.542C501.987 439.378 490.016 447.635 478.178 451.651Z" fill="#04A9F4"/>
<path opacity="0.18" d="M838.871 499.832L552.673 405.501V115.143L838.871 209.474V499.832Z" fill="#04A9F4"/>
<path d="M451.396 346.103C451.396 346.103 471.814 379.215 475.622 389.619C479.429 400.023 479.107 430.681 479.107 430.681H467.988C467.988 430.681 467.988 399.795 463.272 394.544C458.556 389.294 432.266 362.732 432.266 362.732L451.396 346.103Z" fill="#473F47"/>
<path d="M453.669 350.086C453.669 350.086 441.281 393.033 434.879 402.575C428.477 412.117 410.957 429.543 410.957 429.543L401.486 425.203C401.486 425.203 425.75 397.877 424.405 389.863C423.06 381.849 419.613 351.256 419.613 351.256C419.613 351.256 436.735 343.291 453.669 350.086Z" fill="#473F47"/>
<path d="M477.895 338.333C499.423 338.333 516.875 323.355 516.875 304.879C516.875 286.402 499.423 271.425 477.895 271.425C456.366 271.425 438.914 286.402 438.914 304.879C438.914 323.355 456.366 338.333 477.895 338.333Z" fill="#04A9F4"/>
<path d="M411.753 288.509C411.753 288.509 401.885 292.833 405.559 303.253C409.234 313.673 420.844 337.081 419.594 344.022C418.344 350.963 419.594 351.174 419.594 351.174C419.594 351.174 445.525 359.205 453.688 350.085C453.688 350.085 438.251 303.253 434.974 297.385C431.698 291.516 422.322 285.063 411.753 288.509Z" fill="white"/>
<path d="M416.809 311.641C417.782 314.2 419.132 316.641 420.825 318.907C421.676 320.257 422.699 321.522 423.874 322.679C427.208 325.751 432.208 326.921 436.678 328.628C437.477 328.887 438.215 329.267 438.856 329.75C439.523 330.396 440.049 331.139 440.41 331.944C442.834 336.496 446.092 341.112 451.414 343.177C449.236 335.992 447.058 328.823 444.52 321.736C444.157 320.469 443.555 319.261 442.739 318.159C441.758 317.108 440.588 316.197 439.273 315.461C433.591 311.934 428.155 308.357 422.51 304.895C420.616 303.725 418.571 302.392 416.942 304.521C415.54 306.374 416.165 309.674 416.809 311.641Z" fill="url(#paint0_linear)"/>
<path d="M430.049 270.238C430.617 270.726 431.318 271.229 431.318 271.863C431.226 272.376 430.978 272.858 430.598 273.261C428.894 275.765 430.447 279.325 428.401 281.601C427.636 282.399 426.595 282.969 425.428 283.226C424.257 283.369 423.123 283.682 422.075 284.153C421.287 284.818 420.838 285.724 420.825 286.672C420.711 287.794 420.938 288.932 420.825 290.07C420.854 290.451 420.768 290.832 420.575 291.177C420.383 291.521 420.091 291.817 419.726 292.037C419.366 292.182 418.969 292.249 418.571 292.232C416.279 292.316 413.983 292.163 411.733 291.777C411.413 291.732 411.109 291.627 410.843 291.468C410.567 291.212 410.395 290.887 410.35 290.541C409.384 286.786 408.456 283.015 407.415 279.26C406.832 277.907 406.122 276.597 405.293 275.342C404.517 273.457 404.252 271.444 404.517 269.458C404.768 267.969 405.36 266.538 406.259 265.247C406.997 264.031 408.062 262.983 409.366 262.191C410.336 261.7 411.381 261.328 412.472 261.086C416.26 260.094 422.113 258.761 425.371 261.525C428.098 263.817 427.227 267.816 430.049 270.238Z" fill="#FCBDBA"/>
<path d="M430.428 274.448C429.632 274.025 427.018 274.92 426.071 274.903C422.984 274.822 420.389 276.122 417.964 274.529C416.114 273.041 414.872 271.08 414.422 268.937C414.404 268.824 414.404 268.709 414.422 268.596C414.445 268.449 414.51 268.31 414.612 268.19C415.767 266.759 418.097 266.564 420.067 266.19C423.575 265.328 426.732 263.638 429.177 261.314C429.839 260.847 430.278 260.187 430.409 259.46C430.371 259.047 430.219 258.647 429.965 258.293C429.711 257.94 429.364 257.644 428.95 257.428C427.711 256.745 426.326 256.281 424.875 256.063C423.425 255.846 421.938 255.879 420.502 256.161C417.647 256.73 414.828 257.425 412.055 258.241C409.384 258.891 406.619 259.282 403.948 260.013C403.385 260.157 402.849 260.371 402.357 260.647C401.729 261.075 401.24 261.635 400.936 262.273C400.46 263.099 400.213 264.009 400.213 264.93C400.213 265.852 400.46 266.762 400.936 267.588C401.14 267.831 401.282 268.108 401.353 268.401C401.373 268.686 401.334 268.972 401.239 269.246C400.577 271.733 402.035 274.221 403.437 276.464L407.225 282.365C407.604 283.072 408.161 283.699 408.854 284.201C409.216 284.431 409.654 284.555 410.104 284.555C410.554 284.555 410.992 284.431 411.354 284.201C412.112 283.649 412.149 282.576 413.059 282.121C413.371 282.027 413.704 281.995 414.032 282.029C414.361 282.063 414.676 282.161 414.953 282.316C416.582 282.982 417.926 284.039 419.499 284.787C422.237 286.101 425.466 286.445 428.496 285.746C429.287 285.578 430.033 285.28 430.693 284.868C431.331 284.319 431.776 283.627 431.977 282.871C432.178 282.114 432.127 281.325 431.829 280.593C431.526 279.016 432.113 275.342 430.428 274.448Z" fill="#473F47"/>
<path d="M413.987 304.83C413.987 304.83 424.613 328.254 466.719 332.741L468.234 327.685C468.234 327.685 440.107 318.143 434.141 308.455C432.397 305.731 430.89 302.9 429.633 299.986C429.251 298.992 428.645 298.072 427.849 297.279C427.054 296.486 426.084 295.836 424.995 295.365C423.906 294.894 422.72 294.612 421.504 294.534C420.288 294.457 419.066 294.586 417.908 294.914C417.491 295.044 417.075 295.19 416.677 295.353C413.646 296.783 411.752 299.498 413.987 304.83Z" fill="white"/>
<path d="M475.318 326.645C475.28 327.289 474.962 327.898 474.428 328.352C477.132 329.214 479.991 329.665 482.875 329.685C483.403 329.636 483.932 329.764 484.353 330.042C484.902 330.562 484.467 331.408 483.936 331.944C481.746 334.051 478.722 335.383 475.451 335.683C473.32 336.038 471.112 335.732 469.219 334.821C467.896 333.99 466.787 332.933 465.961 331.716C465.696 331.449 465.55 331.109 465.55 330.757C465.55 330.406 465.696 330.066 465.961 329.798C466.302 329.262 466.776 328.173 467.476 327.913C468.22 327.783 468.987 327.783 469.73 327.913C471.587 327.523 473.329 326.466 475.318 326.645Z" fill="#FCBDBA"/>
<path d="M393.702 430.128C393.29 430.452 393.039 430.901 393.001 431.38C393.092 431.78 393.339 432.141 393.702 432.404C398.263 436.659 403.752 440.105 409.858 442.547C411.525 443.23 413.836 443.701 414.973 442.45C416.109 441.198 414.973 439.312 413.95 437.866C412.638 435.948 411.835 433.806 411.601 431.591C411.597 430.831 411.417 430.08 411.071 429.38C409.896 427.495 404.044 425.528 401.6 425.544C398.323 425.495 395.672 428.193 393.702 430.128Z" fill="#04A9F4"/>
<path d="M464.294 437.475C464.184 437.679 464.132 437.902 464.143 438.126C464.154 438.349 464.228 438.568 464.358 438.762C464.488 438.957 464.67 439.122 464.89 439.243C465.11 439.364 465.36 439.438 465.62 439.459C472.014 441.179 478.736 441.819 485.414 441.344C487.308 441.214 489.543 440.645 489.789 439.085C490.035 437.524 487.895 436.37 486.247 435.541C484 434.426 482.061 432.907 480.565 431.087C480.113 430.453 479.521 429.901 478.822 429.462C476.72 428.324 470.507 429.12 468.405 430.177C465.639 431.477 464.901 434.956 464.294 437.475Z" fill="#04A9F4"/>
<path d="M466.89 311.592C467.081 311.892 467.331 312.161 467.629 312.389C468.102 312.69 468.634 312.916 469.201 313.055C475.887 315.054 482.914 316.761 490.036 316.225C490.793 316.207 491.537 316.046 492.214 315.753C492.557 315.601 492.842 315.366 493.033 315.077C493.225 314.789 493.315 314.459 493.294 314.128C493.214 313.862 493.163 313.589 493.142 313.315C493.142 312.275 495.036 312.112 495.586 311.153C495.704 310.844 495.711 310.511 495.606 310.198C495.502 309.885 495.29 309.606 494.998 309.398C494.468 308.926 493.805 308.585 493.294 308.097C494.167 307.683 494.908 307.091 495.453 306.374C495.71 306.011 495.832 305.589 495.802 305.164C495.771 304.74 495.59 304.334 495.282 304.001C494.752 303.513 493.805 303.253 493.748 302.586C493.691 301.92 494.411 301.579 494.866 301.107C495.302 300.518 495.464 299.811 495.32 299.124C495.176 298.437 494.737 297.822 494.089 297.401C492.739 296.599 491.101 296.236 489.468 296.377C487.852 296.539 486.226 296.605 484.6 296.572C484.402 296.576 484.206 296.545 484.023 296.481C483.841 296.416 483.676 296.32 483.539 296.198C483.198 295.824 483.406 295.288 483.539 294.849C484.233 293.417 484.528 291.866 484.4 290.32C484.272 288.773 483.724 287.273 482.8 285.941C482.47 285.425 481.971 285.004 481.365 284.73C480.759 284.456 480.073 284.34 479.391 284.396C478.961 284.516 478.568 284.717 478.24 284.984C477.912 285.252 477.658 285.578 477.497 285.941C477.201 286.673 476.998 287.431 476.891 288.2C475.944 292.801 473.406 297.71 467.989 299.433C467.06 299.725 466.246 299.563 465.621 300.294C465.199 300.973 465.002 301.737 465.053 302.505C464.79 305.444 465.335 308.395 466.644 311.121L466.89 311.592Z" fill="white"/>
<path d="M460.79 299.335H459.445C458.211 299.335 457.21 300.194 457.21 301.254V310.649C457.21 311.709 458.211 312.568 459.445 312.568H460.79C462.024 312.568 463.025 311.709 463.025 310.649V301.254C463.025 300.194 462.024 299.335 460.79 299.335Z" fill="white"/>
<path d="M812.411 474.863L526.213 380.532V43.0007L812.411 137.348V474.863Z" fill="white"/>
<path opacity="0.42" d="M762.351 369.397L558.564 301.335V121.743L762.351 189.805V369.397Z" fill="#04A9F4"/>
<path d="M564.776 280.967L603.189 249.821L636.26 276.952L689.086 243.416L756.308 340.3V359.254L564.776 293.549V280.967Z" fill="#04A9F4"/>
<path d="M611.542 203.882C619.796 203.882 626.487 195.477 626.487 185.107C626.487 174.738 619.796 166.332 611.542 166.332C603.289 166.332 596.598 174.738 596.598 185.107C596.598 195.477 603.289 203.882 611.542 203.882Z" fill="#04A9F4"/>
<path d="M573.622 115.143C579.522 115.143 584.305 109.132 584.305 101.716C584.305 94.3003 579.522 88.2888 573.622 88.2888C567.722 88.2888 562.939 94.3003 562.939 101.716C562.939 109.132 567.722 115.143 573.622 115.143Z" fill="#04A9F4"/>
<path opacity="0.42" d="M650.522 126.571L597.374 107.974C596.084 107.459 594.984 106.65 594.193 105.635C593.401 104.621 592.949 103.44 592.885 102.22C592.804 101.738 592.881 101.247 593.108 100.801C593.334 100.354 593.701 99.9714 594.168 99.6945C594.634 99.4176 595.181 99.2577 595.747 99.2329C596.314 99.2081 596.877 99.3193 597.374 99.554L650.598 118.167C651.876 118.693 652.962 119.508 653.74 120.525C654.518 121.542 654.957 122.722 655.011 123.937C655.07 124.276 655.05 124.621 654.952 124.953C654.854 125.285 654.68 125.597 654.44 125.871C654.2 126.145 653.9 126.375 653.556 126.548C653.211 126.721 652.831 126.834 652.435 126.88C651.775 126.958 651.104 126.849 650.522 126.571V126.571Z" fill="#04A9F4"/>
<path opacity="0.42" d="M648.363 138.454L597.222 120.572C596.117 120.233 595.137 119.648 594.381 118.877C593.626 118.106 593.123 117.176 592.923 116.183V116.183C592.923 114.558 594.817 113.973 597.222 114.802L648.363 132.683C649.472 133.02 650.456 133.604 651.215 134.375C651.974 135.147 652.48 136.077 652.682 137.072V137.072C652.682 138.665 650.75 139.283 648.363 138.454Z" fill="#04A9F4"/>
<path opacity="0.42" d="M756.252 402.623L558.564 335.927V330.855L756.252 397.535V402.623Z" fill="#04A9F4"/>
<path opacity="0.42" d="M756.252 412.816L558.564 346.135V341.047L756.252 407.744V412.816Z" fill="#04A9F4"/>
<path opacity="0.42" d="M756.252 423.024L558.564 356.344V351.256L756.252 417.936V423.024Z" fill="#04A9F4"/>
<path opacity="0.42" d="M756.252 433.217L558.564 366.536V361.464L756.252 428.145V433.217Z" fill="#04A9F4"/>
<path opacity="0.42" d="M756.252 443.425L558.564 376.745V371.657L756.252 438.353V443.425Z" fill="#04A9F4"/>
<path d="M567.467 317.005C567.467 317.005 564.436 310.373 561.027 313.754C557.617 317.135 567.277 326.011 567.277 326.011C567.277 326.011 574.228 323.345 574.285 319.834C574.342 316.323 569.152 312.502 567.467 317.005Z" fill="#04A9F4"/>
<path d="M592.203 334.009C592.102 333.988 592.01 333.943 591.938 333.879L589.627 332.009C588.344 332.351 586.971 332.351 585.688 332.009C583.577 331.413 581.724 330.285 580.372 328.771C579.021 327.257 578.233 325.428 578.111 323.524C578.057 322.911 578.145 322.295 578.369 321.711C578.593 321.127 578.949 320.587 579.418 320.122C579.886 319.656 580.457 319.275 581.097 319C581.737 318.724 582.435 318.56 583.15 318.517C584.017 318.455 584.889 318.578 585.688 318.875C587.784 319.48 589.619 320.613 590.954 322.127C592.288 323.641 593.06 325.464 593.169 327.36C593.225 328.66 592.696 329.929 591.692 330.904L592.677 333.407C592.73 333.508 592.748 333.621 592.728 333.731C592.708 333.84 592.65 333.943 592.563 334.025C592.506 334.047 592.444 334.057 592.381 334.054C592.319 334.051 592.258 334.036 592.203 334.009V334.009ZM585.688 319.915C584.567 319.502 583.302 319.488 582.169 319.875C581.036 320.262 580.129 321.019 579.645 321.98C579.36 322.525 579.23 323.122 579.267 323.719C579.378 325.322 580.05 326.86 581.196 328.13C582.341 329.4 583.907 330.344 585.688 330.839C586.877 331.197 588.173 331.197 589.362 330.839C589.453 330.814 589.55 330.813 589.641 330.836C589.732 330.859 589.813 330.906 589.874 330.969L591.067 331.944L590.593 330.725C590.548 330.626 590.532 330.519 590.549 330.414C590.565 330.308 590.613 330.208 590.688 330.124C591.165 329.73 591.538 329.254 591.783 328.727C592.028 328.2 592.139 327.634 592.109 327.068C592.005 325.458 591.336 323.914 590.19 322.637C589.044 321.361 587.474 320.412 585.688 319.915V319.915Z" fill="#04A9F4"/>
<path d="M604.344 331.326C604.198 331.279 604.072 331.194 603.984 331.083L599.117 325.101C599.031 325.008 598.973 324.899 598.95 324.782C598.927 324.665 598.939 324.546 598.984 324.434C599.018 324.355 599.086 324.289 599.173 324.25C599.261 324.211 599.362 324.201 599.457 324.223L613.228 328.514C613.366 328.561 613.487 328.641 613.574 328.745C613.661 328.848 613.712 328.972 613.72 329.099C613.757 329.203 613.746 329.315 613.689 329.411C613.633 329.508 613.535 329.583 613.417 329.62L604.515 331.245L604.344 331.326ZM600.897 325.783L604.458 330.14L610.936 328.904L600.897 325.783Z" fill="#04A9F4"/>
<path d="M605.765 338.706H605.651C605.538 338.65 605.442 338.573 605.37 338.48C605.298 338.387 605.251 338.281 605.234 338.17L603.833 330.774C603.795 330.668 603.806 330.554 603.862 330.455C603.918 330.355 604.016 330.278 604.136 330.237L613.038 328.612C613.164 328.6 613.292 328.624 613.401 328.68C613.51 328.735 613.596 328.82 613.644 328.921C613.718 329.023 613.757 329.141 613.757 329.262C613.757 329.383 613.718 329.501 613.644 329.603L606.068 338.69C606.022 338.713 605.971 338.726 605.918 338.729C605.866 338.732 605.813 338.724 605.765 338.706V338.706ZM604.95 331.261L606.03 336.87L611.712 329.961L604.95 331.261Z" fill="#04A9F4"/>
<path d="M854.255 47.6841C854.765 46.2105 856.98 46.2105 857.488 47.6841L859.307 52.9513C859.418 53.272 859.634 53.5515 859.924 53.7498C860.214 53.9481 860.564 54.055 860.922 54.0553H866.808C868.455 54.0553 869.138 56.0393 867.807 56.9513L863.047 60.2057C862.756 60.4041 862.54 60.6841 862.429 61.0054C862.318 61.3268 862.318 61.673 862.428 61.9945L864.247 67.2617C864.757 68.7353 862.964 69.9625 861.629 69.0505L856.869 65.7961C856.579 65.5977 856.229 65.4908 855.871 65.4908C855.512 65.4908 855.162 65.5977 854.872 65.7961L850.112 69.0505C848.779 69.9625 846.987 68.7353 847.496 67.2617L849.315 61.9945C849.425 61.673 849.425 61.3268 849.314 61.0054C849.203 60.6841 848.986 60.4041 848.696 60.2057L843.937 56.9529C842.606 56.0409 843.291 54.0569 844.937 54.0569H850.821C851.18 54.0569 851.529 53.9502 851.82 53.7519C852.11 53.5536 852.326 53.2739 852.437 52.9529L854.256 47.6857L854.255 47.6841Z" fill="#FDDC93"/>
<path d="M898.549 186.81C898.849 185.889 900.152 185.889 900.451 186.81L901.521 190.102C901.586 190.302 901.713 190.477 901.884 190.601C902.055 190.725 902.26 190.791 902.471 190.792H905.933C906.902 190.792 907.304 192.032 906.521 192.602L903.721 194.636C903.55 194.76 903.423 194.935 903.357 195.135C903.292 195.336 903.292 195.553 903.357 195.754L904.427 199.046C904.727 199.967 903.672 200.734 902.887 200.164L900.087 198.13C899.916 198.006 899.711 197.939 899.499 197.939C899.288 197.939 899.083 198.006 898.912 198.13L896.112 200.164C895.328 200.734 894.274 199.967 894.573 199.046L895.643 195.754C895.708 195.553 895.708 195.336 895.643 195.135C895.577 194.935 895.45 194.76 895.279 194.636L892.48 192.603C891.697 192.033 892.1 190.793 893.068 190.793H896.529C896.74 190.793 896.946 190.726 897.116 190.602C897.287 190.478 897.415 190.303 897.48 190.103L898.55 186.811L898.549 186.81Z" fill="#FDDC93"/>
<path d="M348.549 114.67C348.849 113.749 350.152 113.749 350.451 114.67L351.521 117.962C351.586 118.162 351.713 118.337 351.884 118.461C352.055 118.585 352.26 118.652 352.471 118.652H355.933C356.902 118.652 357.304 119.892 356.521 120.462L353.721 122.496C353.55 122.62 353.423 122.795 353.357 122.996C353.292 123.197 353.292 123.413 353.357 123.614L354.427 126.906C354.727 127.827 353.672 128.594 352.887 128.024L350.087 125.99C349.916 125.866 349.711 125.799 349.499 125.799C349.288 125.799 349.083 125.866 348.912 125.99L346.112 128.024C345.328 128.594 344.274 127.827 344.573 126.906L345.643 123.614C345.708 123.413 345.708 123.197 345.643 122.996C345.577 122.795 345.45 122.62 345.279 122.496L342.48 120.463C341.697 119.893 342.1 118.653 343.068 118.653H346.529C346.74 118.653 346.946 118.586 347.116 118.462C347.287 118.338 347.415 118.164 347.48 117.963L348.55 114.671L348.549 114.67Z" fill="#FDDC93"/>
</g>
<defs>
<linearGradient id="paint0_linear" x1="470.658" y1="283.405" x2="396.636" y2="394.799" gradientUnits="userSpaceOnUse">
<stop offset="0.01"/>
<stop offset="0.08" stop-opacity="0.69"/>
<stop offset="0.21" stop-opacity="0.32"/>
<stop offset="1" stop-opacity="0"/>
</linearGradient>
<clipPath id="clip0">
<rect width="631" height="522" fill="white" transform="translate(295 16.0002)"/>
</clipPath>
</defs>
</svg>
